/* XPM */
static char *_5f5bc708919484785ddc9e798bdce3aen6k134laNbL2zAJ[] = {
/* columns rows colors chars-per-pixel */
"50 50 67 1 ",
"  c #5E7D1C",
". c #607F1E",
"X c #5E7B20",
"o c #617F21",
"O c #5F811D",
"+ c #63831E",
"@ c #68871F",
"# c #66881F",
"$ c #698B1F",
"% c #6D921F",
"& c #658521",
"* c #688722",
"= c #678921",
"- c #698921",
"; c #688B22",
": c #698B23",
"> c #6B8B23",
", c #688D21",
"< c #6B8E22",
"1 c #6C8D22",
"2 c #688824",
"3 c #698824",
"4 c #698924",
"5 c #6B8B27",
"6 c #6B8C24",
"7 c #6C8D24",
"8 c #6D8F26",
"9 c #6E8E26",
"0 c #6D9320",
"q c #6F9220",
"w c #6C9023",
"e c #6D9222",
"r c #6F9323",
"t c #6E9126",
"y c #6F9524",
"u c #709023",
"i c #719223",
"p c #709423",
"a c #709325",
"s c #719326",
"d c #719525",
"f c #739724",
"g c #739924",
"h c #759824",
"j c #749827",
"k c #759B26",
"l c #779B26",
"z c #779E25",
"x c #799F25",
"c c #729428",
"v c #739828",
"b c #759B28",
"n c #779C28",
"m c #769D28",
"M c #789E28",
"N c #79A224",
"B c #79A127",
"V c #7FA827",
"C c #79A028",
"Z c #7CA229",
"A c #7CA329",
"S c #7FA729",
"D c #82AA27",
"F c #80A62A",
"G c #82AA2A",
"H c #89B42C",
"J c #90BD2F",
/* pixels */
"&&#=++&++&++-+++&7a+ +#O.  $N#r#**&++.++&&a1$N++&&",
"a#&&&++++&-$+++&&-+-cM#+++++d#-<7&o*+..-4+1$+++++-",
"<g<+-++-&&--++&&*<&rbr&-++-+&&-d1-*&-&+77-+%r171xz",
"zp &7---&&=*=&=-+44& &47$+--+-hdabN@&&=-771ha7hmrc",
"r1+*--4&&---==-&-<-&&&67tt6-&$--axh**+&+7--&<Aa&+=",
"+&&&&&&&-<<7<brzz-&-cr&-6d7dd+-6*+*&+&&&&477-Na-$&",
"<=4&&--++-+*Mz+y<&&&t6-667-r1-<-+**&+-&&&<744odh-<",
"&=*&4-&&&&&ahMgd<<d+6=67=4rr*&&***&&&& &77+&4&xd&=",
"+4=4-&+ &t&vzmdi&&$&-+1-6y7a*&o*54-**&+*-=+&&&===+",
"+++4+++ -dN-rz#ao&=X+1$%=$-7d-*4&-a*fa-+&=++&-4&-&",
"+++&-=+ &&y<rgd+&&6N+-+r<444&iahrcGb+$+*7<=+--6*&&",
"+++&44&1&.o7Gr<rFMzN& +.<dNh1d&*Zd<xi. Fh-6o&4&+=+",
"&-&&&-4+&&&-D1+grrt&.+++jZg1=11&&Hh+< &m<<< ++---&",
"<&&++&1+&&+$z-mAz6rr-#+<d54- &r--dh&&+=g& ++&+1<4-",
"d--+++ &*=&-zr-7vzZw<=-1*47--&4a<&&&AN&&7z&+&+=64-",
"+$d1+& &&&rZvr4&&y<6<++&<r7&*47-6t42rN6&dG1o&&&&=*",
"&X=r= O-2&gZ&=g-+t=6-+.+11-6-1-4rc61&&rm2&&&4&&4$+",
"&2OrZ&&=&&d1+y-+&rt7r1+.--&774=77761&+&-22&444&=&&",
"&==yzy&=&&&&1+4&&=7771++&&&4<+=i-44=&&&&464&&*-4O&",
"&&&- &bcr+4&+1<&+&44&&&-&-7&-$-dd&&4&+&&4464-----&",
"&& +&&-czGz2&y<&&++-r<1-774-$#&&r&-1...*4*777t+---",
"=&++++-g&ZZyz&&-&&+&<=-776rrzr+ $1-=@*.*4&4-ZZ+++-",
".&+&&+<6&dz-=r+&=4&o+<7raag7i<=#+*&&-*&*44*476&-<+",
".++&&+&rz<&&7- &<-&&--r<gM<4=gN<++&&--54&**9Z=&-+ ",
" +++$x-6d-=&6r49a6&-74477bbFcc0+-11*&-77&&5am=&O  ",
"  ++<hcg7-VZr<9aa64*7--4*-bGr r=O&r-444a5-17v,+# O",
"  ++4&AN6+NJx<76-74-a#-&-7axVdgg$r-4475&47hvd00<O ",
"+ ++&7-=xd&hr=66471-1-+1cr7rNA=zgr1-7*c4&*bZ&-<#+ ",
"1-+&-M*-Ah&&+=1a4&7=+++-41=<=&ah11$--*=4-hc&rz+r++",
"<&r-*-&.yz4&aarrt-=Nr&-+<17+<6$--1+&*orf5Mbo&6#r++",
"&-17-dZ6<r=y6rgt<#&a1+&+$$<<zrzr--+.+.5a=-g=2&=&+&",
"4r<--AAd+ =4gdz<+&+=1++&&+#r<+zra$+..o7d$+=&4&=&+r",
"1&g-&14r-&bdfdddt6&+<=$++&&$++$7-& r6=,zv<&&&&<-=<",
"yb==6--&++&*&o+-<=&<<=<&+&+ ++-r+&r$gN#Oz= &46-2-$",
"gc=6br&&- 4M--7+Odc1=&+-&O+-&++<<&r<+gg <<++&<*&&+",
"=&rr=-&6-o4h1-NGhz-4&&++&++=&++*=+&0 Og =V,&&=&&*+",
"O&+==<&yd  X1&rc6gr-+-4-+&&++4a+=<r&+&=Z6bZ1++#&-*",
"+O+-6r4&&h-1Gxb-&xm&&&&4=-=-=17xHgr<Vr<MxHr-& &&$+",
"++$=&<+  r=<<dr4d+&&&--df-6-+++AN= -Z764dx++&&+&+#",
"++++&+  &&= &rby6-&&h$#grg0+1$+dG-&dA<&g&&&&4-.+$#",
"++&+&&&&O&4&4-M7-c<&6=&#&N-&r+ -z-+bd&&06=&-c&&&##",
"++=&O&<-&&4-4o ddyy= &zrgZ*&+r< rz+<*&dZ*7-6r&<<+#",
"O+=&&&-&+=47r&r<0zAzXx<XmaX& mzO&<67=&zc&-76<66&  ",
"++&2-<4&&-h-O2r&r1&h4d<O+=zr+&=&4=*47&&4&+&ry4&&  ",
"+O+<<44**&&*2wvw&r am&a=dmrgg&+&4014&=-&==-&4-&&++",
" +#11&4&&&++&O6g-- *<++rMh&=<+&&&=7-O&644&+#r-&+++",
" +&-r&+++&<++.&y4&++  O=gN=&+++&-=-4&444&++rz&+++ ",
"++<11++ +++++&-d-+&&O  ++<&r+&&$-&-44&&&+&&AM&00+#",
"Nd1&1<++++++&+*-++&&+ +#     ###<-=+&&<=+&#zV <<+r",
"N7&&-4&&&&+++$&++<h1=++.   #%%##6--+ &1-&&d+<d +Z<"
};
